<svg width="213" height="213" viewBox="0 0 213 213" fill="none" xmlns="http://www.w3.org/2000/svg">
<rect x="1" y="1" width="210.598" height="210.598" rx="105.299" fill="#8C1739" stroke="#FFCF8D" stroke-width="2"/>
<path d="M66.7039 139.12C67.7159 139.12 68.9259 139.054 70.0259 138.988V139.12C68.7279 139.384 68.2659 139.912 68.1999 141.012C68.0679 143.256 68.0459 144.356 68.0459 146.908C68.0459 150.516 68.0019 151.44 67.9139 152.43C67.6279 155.576 66.1979 157.248 62.5679 159.25L62.5019 159.118C64.4159 157.754 64.9659 155.752 65.2299 152.606C65.3179 151.616 65.3619 150.494 65.3619 146.908C65.3619 144.62 65.3619 143.014 65.2299 141.034C65.1639 139.912 64.6579 139.384 63.3819 139.12V138.988C64.5039 139.054 65.7139 139.12 66.7039 139.12ZM85.4541 152.65C86.0481 153.904 86.4661 154.498 87.5441 154.696V154.828C86.7961 154.762 85.3881 154.696 84.4201 154.696C83.4521 154.696 81.9121 154.74 80.8341 154.828V154.696C82.1761 154.564 82.7701 153.926 82.2861 152.672C82.0441 152.012 81.7141 151.264 81.3621 150.428C80.4601 150.406 79.3161 150.384 78.2381 150.384C77.1821 150.384 76.1261 150.406 75.3121 150.45C75.0261 151.176 74.7621 151.902 74.4761 152.628C73.9921 153.926 74.3441 154.542 75.7301 154.696V154.828C75.0041 154.762 74.0581 154.696 73.3541 154.696C72.4961 154.696 71.7041 154.762 71.0881 154.828V154.696C71.7921 154.586 72.4741 153.948 73.0681 152.628C74.8941 148.492 77.6001 142.2 78.9421 138.746H78.9861C81.2301 143.762 82.5721 146.6 85.4541 152.65ZM78.2161 149.394C78.9861 149.394 79.9981 149.35 80.8781 149.306C79.9761 147.238 78.9201 145.016 78.1501 143.388C77.4021 145.192 76.5881 147.216 75.7741 149.306C76.5221 149.35 77.4901 149.394 78.2161 149.394ZM96.053 138.988V139.12C94.755 139.406 94.293 139.934 94.227 141.056C94.095 143.278 94.073 144.356 94.073 146.908C94.073 149.46 94.095 150.538 94.227 152.76C94.293 153.882 94.799 154.432 96.053 154.696V154.828C94.953 154.762 93.743 154.696 92.731 154.696C91.741 154.696 90.531 154.762 89.409 154.828V154.696C90.685 154.432 91.191 153.882 91.257 152.76C91.389 150.78 91.389 149.196 91.389 146.908C91.389 144.62 91.389 143.036 91.257 141.056C91.191 139.934 90.685 139.384 89.409 139.12V138.988C90.531 139.054 91.741 139.12 92.731 139.12C93.743 139.12 94.953 139.054 96.053 138.988ZM104.488 147.898V147.766C107.282 147.568 107.722 144.906 107.722 143.586C107.722 141.452 106.556 139.824 104.576 139.824C104.312 139.824 104.004 139.846 103.674 139.912C103.542 143.168 103.542 144.752 103.542 146.93C103.542 149.482 103.564 150.582 103.696 152.826C103.762 153.926 104.224 154.454 105.522 154.718V154.85C104.422 154.784 103.212 154.718 102.2 154.718C101.21 154.718 99.9996 154.784 98.8776 154.85V154.718C100.154 154.454 100.66 153.926 100.726 152.804C100.858 150.824 100.858 149.218 100.858 146.93C100.858 144.752 100.858 143.124 100.748 141.1C100.682 139.824 100.176 139.362 98.8996 139.12V138.988C99.8676 139.076 101.232 139.12 102.002 139.12C103.19 139.12 104.004 138.988 105.06 138.988C108.646 138.988 110.538 140.572 110.538 143.014C110.538 146.138 107.634 147.766 104.488 147.898ZM125.807 139.12C126.577 139.12 127.435 139.076 128.491 138.988V139.12C127.391 139.252 126.775 139.692 126.709 140.99C126.599 143.036 126.533 146.182 126.533 148.712C126.533 152.87 124.223 155.048 120.483 155.048C116.677 155.048 114.059 152.782 114.059 148.492C114.059 145.698 114.037 142.992 113.927 140.99C113.861 139.868 113.355 139.384 112.079 139.12V138.988C113.179 139.054 114.367 139.12 115.401 139.12C116.435 139.12 117.623 139.054 118.723 138.988V139.12C117.469 139.384 116.963 139.824 116.897 140.968C116.765 143.19 116.743 145.83 116.743 148.536C116.743 152.276 118.173 153.992 120.901 153.992C123.541 153.992 125.103 152.342 125.103 148.756C125.103 146.886 125.037 142.794 124.927 141.012C124.861 139.714 124.245 139.252 123.145 139.12V138.988C124.201 139.076 124.971 139.12 125.807 139.12ZM140.38 147.48C142.932 151.968 144.384 154.608 146.958 154.696V154.828C139.786 154.828 141.15 153.508 137.564 148.316H137.168C136.684 148.316 136.068 148.294 135.584 148.25C135.606 149.922 135.628 151 135.738 152.804C135.804 153.904 136.266 154.432 137.564 154.696V154.828C136.464 154.762 135.254 154.696 134.242 154.696C133.252 154.696 132.042 154.762 130.92 154.828V154.696C132.196 154.432 132.702 153.904 132.768 152.782C132.9 150.802 132.9 149.196 132.9 146.908C132.9 146.05 132.9 142.442 132.79 140.924C132.702 139.714 132.218 139.362 130.942 139.098V138.966C131.998 139.054 133.12 139.098 133.956 139.098C135.1 139.098 136.2 138.988 137.08 138.988C140.688 138.988 142.668 140.858 142.668 143.41C142.668 145.06 141.854 146.578 140.38 147.48ZM136.794 147.546C139.39 147.546 139.984 145.302 139.984 143.762C139.984 141.738 138.928 139.934 136.706 139.934C136.376 139.934 136.068 139.956 135.716 140.022C135.584 143.19 135.584 144.752 135.584 146.908V147.37C135.914 147.48 136.288 147.546 136.794 147.546Z" fill="#FFE6C4"/>
<g clip-path="url(#clip0_770_430)">
<path d="M156.94 90.1688C156.981 90.6011 158.597 90.1716 158.146 91.1177C157.875 91.3597 157.341 91.2863 156.83 91.4956L156.873 101.047C157.212 101.294 157.999 101.18 158.015 101.688C158.033 102.235 157.228 102.091 156.857 102.311V111.451C157.937 111.737 161.342 111.106 161.439 111.878C161.482 112.232 161.366 112.493 160.738 112.493H53.4792C53.063 112.493 53.0012 112.256 52.9609 112.128C52.8911 111.905 53.0308 111.536 53.4067 111.53L57.5612 111.454L57.5504 102.262C57.196 102.183 56.8334 102.134 56.6508 102.061C56.4682 101.987 56.3527 101.664 56.5192 101.427C56.6481 101.245 57.0885 101.188 57.5343 101.096L57.6015 91.5255C57.204 91.2944 56.5192 91.4711 56.3876 91.0252C56.2184 90.4489 56.9516 90.3374 57.5478 90.3157L57.6015 81.7434C56.8979 81.689 56.2856 81.757 55.8102 81.3166C56.0358 80.1991 57.0509 79.8375 57.7331 79.1334C58.4904 75.9416 55.6679 73.0352 60.3111 70.8303L60.8402 67.8832C60.8831 67.6466 61.1705 67.5814 61.3128 67.5977C61.8741 67.6575 61.8069 69.9168 62.2339 70.8249C64.052 71.5317 65.3222 73.3587 64.6804 75.3271C64.4387 76.0666 64.0923 76.8252 64.5891 77.5592C68.7758 75.4413 71.4828 74.7942 75.5889 73.095L75.5674 65.2405C74.8504 65.1454 73.9507 65.4798 73.6795 64.6777C74.2005 63.8784 75.7634 63.3455 75.6936 62.307C75.5325 59.8601 76.416 57.8129 78.8974 57.0652C80.7558 54.5395 79.2653 53.9196 80.5194 51.8261C81.7091 53.0061 80.7235 55.2545 81.889 56.7852C82.7484 57.2066 83.4278 57.6389 84.1878 58.2615C84.4 57.473 84.1046 56.845 84.827 56.4535C85.168 57.0489 85.0713 57.6552 85.2593 58.1826C86.4087 57.8509 87.2036 57.1468 88.1892 56.7933C90.676 55.9016 93.0848 56.7607 95.2735 58.2044C95.5904 58.1119 95.6495 57.4893 95.5904 57.2446C95.5179 56.9347 95.1795 56.7199 94.8116 56.4888L95.5448 55.6378C95.8375 52.2476 92.5128 49.4391 89.2392 50.1731C86.8948 50.7006 85.5789 52.6091 84.9075 54.8385C83.3714 52.9653 86.3067 50.2221 88.2214 49.4228C88.5168 48.7947 89.3816 47.854 89.4218 47.2613L89.5937 44.8362C89.6259 44.3713 89.5776 43.1778 90.3994 43.5774C90.8854 44.4909 90.6088 46.2962 90.9499 47.2586C91.299 47.7045 91.7152 48.7893 92.1154 49.1699C93.2245 50.146 94.7364 50.4776 95.4991 52.0572C95.7596 46.6116 98.915 44.0777 103.37 42.4192C104.745 39.4911 105.626 40.9511 105.774 38.129C105.766 38.2731 106.233 34.6762 106.271 34.6327C106.426 34.4533 106.784 34.4152 106.912 34.5647C107.041 34.7143 107.272 35.0541 107.202 35.3178C106.904 36.4515 107.519 37.3542 107.552 38.3166C107.651 41.1876 109.251 39.9207 109.7 42.5253C114.233 43.6019 117.531 47.0629 117.961 51.9594C119.875 49.159 121.339 50.5864 122.4 47.1526C122.714 46.1358 122.351 44.4501 122.956 43.5611C123.756 42.6177 123.801 46.9432 123.92 47.2287C124.14 47.7589 124.817 48.6996 125.031 49.3303C126.444 50.0725 129.863 52.2421 128.383 54.1153C127.459 51.9403 125.786 50.3064 123.468 50.0889C121.242 49.8795 119.107 51.4129 118.253 53.3541C117.783 54.4226 118.006 55.2817 118.151 56.2414C118.226 56.7281 117.59 57.4513 118.049 58.0086C119.156 58.1038 119.956 57.1141 120.939 56.7471C124.599 55.3796 127.612 58.3376 128.195 58.0412C128.404 57.9352 128.402 57.5546 128.48 57.2555L128.625 56.7199C128.665 56.5758 129.027 56.4861 129.175 56.7498C129.454 57.2555 129.175 57.7884 129.481 58.517C130.257 57.7775 131.125 57.3779 132.038 56.8096C133.262 55.0316 132.363 52.8566 133.407 51.8153C134.656 53.5526 133.281 54.7352 135.048 57.0326C137.24 57.734 138.513 59.6915 138.287 62.0025C138.088 64.0334 139.976 64.0198 140.145 64.6043C140.188 64.7511 140.132 65.1046 139.847 65.1399C139.372 65.2025 139.026 65.1399 138.486 65.3384L138.521 73.231L142.976 74.8187C145.369 75.6724 147.694 76.4772 150.079 77.6163C150.831 76.643 149.964 75.9388 149.738 75.251C149.075 73.231 150.552 71.4855 152.276 70.7868C152.705 69.8624 152.504 67.6548 153.167 67.5705C153.318 67.5515 153.549 67.7064 153.592 67.9946L153.989 70.7841C156.508 71.6187 157.343 73.9759 156.476 76.4092C156.234 77.0862 157.045 78.2688 155.826 78.6549C155.418 77.6952 155.748 76.7327 155.574 75.6969C153.943 75.6153 152.372 75.599 150.74 75.7159C150.544 76.7898 150.632 77.7659 150.839 78.9213C150.302 79.215 149.955 78.6141 149.448 78.3912C145.89 76.8279 142.369 75.531 138.556 74.3919C138.413 75.7241 138.445 76.817 138.529 78.0078L142.839 78.2851C145.175 78.4347 147.211 80.316 149.558 80.6776C152.021 81.0583 154.494 80.5716 156.994 80.781C156.626 79.8838 155.853 80.1747 155.165 80.1502L151.9 80.0387C151.263 80.017 151.945 78.3096 152.585 78.3803C152.722 78.731 152.861 79.2748 153.259 79.0736C153.691 78.8534 153.557 78.2661 153.576 77.9099C153.597 77.513 153.21 77.3988 152.834 77.0318C152.662 76.8632 153.014 76.5506 153.189 76.5424C154.102 76.5043 153.618 78.1492 154.25 79.0165C154.985 80.0306 156.049 77.2819 158.697 81.2214C158.125 81.8005 157.588 81.602 156.828 81.7053C156.911 84.4159 156.669 87.2108 156.94 90.1634V90.1688ZM108.642 42.1229L106.77 40.0104C105.932 40.7472 105.151 41.2773 104.624 42.2235L108.642 42.1229ZM116.908 55.491C117.109 53.191 117.112 50.7522 116.078 48.5772C114.37 44.983 110.726 43.1995 106.824 43.1207C102.922 43.0418 98.7485 45.0129 97.1292 48.8899C96.251 50.9942 96.5088 53.1991 96.6297 55.5617C97.3843 55.5536 98.147 55.3823 98.864 54.9745C101.246 53.6151 103.805 53.1447 106.563 53.2535C113.151 53.5118 110.793 53.539 116.905 55.4938L116.908 55.491ZM117.007 71.7927L116.988 56.6166C115.334 56.236 113.983 55.5889 112.565 54.7814C108.927 54.1045 105.239 54.0936 101.566 54.7026C99.9704 55.6841 98.3135 56.2142 96.5626 56.7063L96.5921 71.8308L117.005 71.79L117.007 71.7927ZM90.974 74.449C91.111 73.5599 90.9203 72.7742 91.162 71.964L95.6226 71.8172L95.6173 59.2783C94.2665 59.1287 93.4769 58.1636 92.3034 57.6579C91.3044 57.2283 89.7629 57.2066 88.7156 57.5818C87.4668 58.0276 86.5886 58.9547 85.2432 59.1831L85.4312 63.8349C85.7857 64.172 86.4383 64.0388 86.7149 64.4412C86.9109 64.7267 86.6477 65.0883 86.4597 65.11L85.4903 65.2215L85.4312 75.0634C87.4856 75.1939 89.3547 75.5854 90.9767 74.449H90.974ZM128.375 75.1395L128.369 65.2867C127.746 65.042 127.225 65.2813 126.801 64.7539C127.021 64.0742 127.827 64.3161 128.27 64.0742C128.48 62.4728 128.412 60.7355 128.361 59.1586C127.099 58.8324 126.31 58.1609 125.217 57.7367C121.661 56.3583 120.603 58.5225 117.92 59.2348L117.998 71.7655L122.639 71.8933L122.856 74.1363C124.556 75.6697 125.748 75.0879 128.372 75.1368L128.375 75.1395ZM133.007 61.9671L137.224 62.4511C137.857 60.586 136.652 58.7862 134.976 57.9488C133.628 57.2773 132.578 57.4676 131.361 58.2995C129.97 59.2511 128.917 60.6757 129.468 62.413C130.633 62.6876 131.702 61.8149 133.01 61.9671H133.007ZM84.4591 61.127C84.2174 59.0037 81.9078 57.1767 79.8373 57.6715C77.5573 58.218 76.2603 60.1891 76.6899 62.3124C77.3774 62.5163 78.03 62.3124 78.7336 62.1303C82.0717 61.2602 84.7598 63.7724 84.4591 61.127ZM84.3489 63.4244C83.6883 63.1444 82.9928 63.4597 82.4154 63.283C80.9196 62.8235 79.5688 62.9839 78.0676 63.2667C77.1787 63.4325 76.1931 63.2178 75.6426 64.2618C78.6503 63.9953 81.3412 64.0497 84.2818 64.2155C84.6202 64.2346 84.6927 63.5712 84.3489 63.4244ZM137.908 64.24C137.68 63.109 136.751 63.5277 136.104 63.3836C134.149 62.9513 132.438 62.9133 130.464 63.3809C130.239 63.4353 129.761 63.2966 129.54 63.3836C129.377 63.4489 129.248 63.824 129.446 64.1938L137.908 64.24ZM84.5289 75.058L84.5101 65.2296C81.0377 65.091 79.8481 64.8245 76.4724 65.3438L76.5449 75.2265L84.5289 75.0607V75.058ZM137.511 75.1803V65.2704C134.686 65.0937 132.14 64.9251 129.36 65.2541L129.35 75.1558L137.508 75.1776L137.511 75.1803ZM63.9312 74.7344C63.9795 72.7824 62.6824 71.8498 61.1705 71.5181C59.6612 71.9559 58.391 73.0923 58.5924 74.7915L63.9312 74.7344ZM155.907 74.7154C155.799 72.8775 154.66 71.9694 153.261 71.5344C151.704 71.8825 150.382 72.9672 150.581 74.7725L155.904 74.7154H155.907ZM117.485 73.8671C120.297 75.0716 118.492 74.0031 121.683 74.4897C121.822 73.8617 121.906 73.3533 121.688 72.7117L112.761 72.7742C112.463 73.1412 112.536 74.0248 112.826 74.2858C113.556 74.9492 114.375 74.0683 115.068 74.139C115.493 74.1825 116.124 74.6366 116.569 74.5604C116.862 74.5115 117.211 73.753 117.488 73.8726L117.485 73.8671ZM122.287 75.3326L111.591 75.2646L111.902 72.7824L92.1181 72.815C91.8254 73.6279 92.0832 74.2967 92.1852 75.0716C91.1916 75.5392 89.9965 75.7431 89.5427 76.885L124.003 76.9448C123.82 76.2841 123.152 75.3353 122.284 75.3298L122.287 75.3326ZM57.4752 80.7347L65.1557 80.7864C67.1484 79.8729 68.9799 78.4836 71.139 78.296L75.5674 77.9127C75.6426 76.7164 75.6533 75.5582 75.5137 74.3348C71.3539 75.7268 66.0393 77.4287 62.5186 80.1094C61.1383 79.9626 59.8841 80.1067 58.4823 80.2182C57.9989 80.1176 57.4806 80.2182 57.4752 80.7347ZM62.7522 78.7256C63.0852 78.8099 63.6304 78.141 63.6626 77.8528L63.8855 75.792C62.1453 75.5691 60.5609 75.6398 58.7535 75.705C58.7992 76.8061 58.5602 78.0187 58.8368 79.1062C60.816 80.036 59.5001 76.7463 61.0845 76.537C62.669 76.3276 62.0889 78.5597 62.7522 78.7256ZM82.6437 86.7704C82.9283 87.1646 83.9596 86.9933 84.5369 86.8492L84.4778 76.1672L76.5234 76.2107L76.5557 86.9553C77.1357 87.0151 78.0192 87.1184 78.3254 86.7595L78.4624 82.1104C78.4865 81.2595 79.6225 80.3079 80.5006 80.2644C83.4654 80.1176 82.2247 85.4028 82.641 86.7704H82.6437ZM90.2651 109.29C90.7001 109.089 91.0815 108.412 91.4494 108.091L91.4413 77.9263C90.4719 77.6598 89.5212 78.0812 88.6753 77.6408C88.2429 77.4151 88.5544 76.5533 88.7236 76.3113C87.6978 76.0204 86.7283 76.0449 85.5279 76.1645L85.4876 86.4795C85.4876 86.6154 87.918 89.3124 88.7424 89.761C87.7031 90.6038 86.7122 89.9676 85.5225 90.2531L85.4581 109.412C87.0908 109.456 88.6216 109.657 90.2678 109.293L90.2651 109.29ZM128.375 90.2558L125.783 90.109C125.515 90.0927 125.265 89.9541 125.203 89.8154C124.768 88.7931 126.312 89.5191 127.279 87.5235C127.451 87.17 128.216 87.1429 128.337 86.735L128.367 76.1563C127.086 76.1292 126.095 76.102 125.007 76.2787C125.303 77.0236 125.33 77.7006 124.658 77.8746C123.922 78.0622 123.2 77.6979 122.499 78.035L122.515 108.254C123.114 108.472 123.35 109.358 123.756 109.423C125.295 109.671 126.747 109.505 128.359 109.431L128.372 90.2586L128.375 90.2558ZM135.559 86.9498C136.225 87.1211 136.783 87.1565 137.514 86.9634L137.5 76.0829L129.358 76.1264L129.387 86.7622C129.704 87.2326 130.835 87.0259 131.361 86.8411L131.49 82.0941C131.514 81.1643 132.666 80.0496 133.558 80.1828C136.598 80.6423 135.365 84.9026 135.559 86.9525V86.9498ZM116.776 91.8653L116.994 94.8859L117.098 108.447L121.554 108.404V77.8936L92.3678 77.861L92.4296 108.385C93.9549 108.52 95.3245 108.466 96.7774 108.374L96.8606 94.6167C96.866 93.8582 97.0809 93.1622 97.0459 92.4064C96.8768 88.7524 99.0815 85.8895 102.183 84.2039C103.784 83.3339 105.347 82.714 106.926 81.5259C111.032 84.4812 116.296 85.237 116.774 91.8599L116.776 91.8653ZM72.4549 84.4323L72.5194 87.6078C73.4942 87.8715 74.5926 87.7709 75.5728 87.2135L75.6614 79.0736C70.43 78.6685 69.6432 79.6527 65.2202 81.7869L65.2659 87.7763C66.1735 87.8361 66.955 87.8497 67.7634 87.7029L67.809 84.522C67.8251 83.2958 69.0094 82.2219 70.1615 82.2409C71.1739 82.2572 72.4307 83.1843 72.4576 84.4295L72.4549 84.4323ZM146.698 87.7573C147.512 87.847 148.299 87.8715 149.153 87.7627L149.142 81.8032L143.239 79.2965C141.781 78.6766 140.148 79.1769 138.486 79.1905C138.69 81.8521 138.185 84.3915 138.679 87.0151C138.872 88.0373 141.115 87.9123 141.711 87.5833C141.998 86.2402 141.547 85.1201 141.92 83.8912C142.168 83.0756 143.244 82.3334 144.096 82.2926C146.926 82.1566 146.744 85.9221 146.701 87.76L146.698 87.7573ZM81.642 86.7595C81.5238 85.4572 82.2247 81.1208 80.4174 81.3329C78.7954 81.5232 79.4828 85.517 79.3996 86.8519C80.2724 86.9308 80.9357 87.0096 81.6393 86.7595H81.642ZM134.89 86.822C134.192 84.9869 135.54 81.4661 133.523 81.2921C131.619 81.1262 132.417 85.5932 132.296 86.9172C133.34 86.996 134.125 86.9906 134.89 86.8248V86.822ZM64.103 87.7056C64.4414 85.6421 64.1541 83.7634 64.2185 81.8494H58.6058L58.5629 90.2667C59.5565 90.5141 60.3702 90.2993 61.5491 90.3945C62.1587 89.4674 63.6196 88.8122 64.1057 87.7056H64.103ZM155.872 90.2259L155.842 81.8059L150.138 81.8168C150.246 83.9402 149.913 85.9602 150.267 87.9612C150.828 88.7361 151.972 89.3641 152.429 90.3564C153.696 90.3211 154.711 90.4869 155.872 90.2286V90.2259ZM106.929 92.458C109.778 93.8419 112.837 95.2883 112.847 98.8662L112.89 111.359C113.833 111.617 114.606 111.579 115.691 111.419C115.149 110.217 116.038 109.227 116.059 108.205C116.148 103.735 116.191 99.4017 116.043 94.9865C116.016 94.179 115.689 93.5673 115.807 92.6538C116.172 89.8072 114.537 87.0531 112.168 85.6856L106.883 82.6324C105.312 83.7526 103.773 84.3561 102.183 85.2941C99.7529 86.7269 97.8758 89.1874 98.0073 92.1481C98.053 93.1595 97.8059 93.9914 97.7979 94.9457L97.6824 108.162C98.4639 109.064 98.3135 110.067 98.2249 111.321C99.103 111.647 100.118 111.595 101.037 111.315L101.131 98.6894C101.147 96.5987 102.307 94.8886 104.05 93.9697L106.931 92.4472L106.929 92.458ZM71.5526 87.6078C71.5365 86.1994 71.9393 83.2442 70.1669 83.2306C68.3703 83.217 68.7328 86.436 68.8188 87.6594C69.807 87.7546 70.5348 87.7437 71.5526 87.6078ZM145.635 87.6404C145.594 85.8542 146.056 83.6139 144.246 83.3393C142.436 83.0647 142.554 86.4659 142.788 87.6839C143.854 87.7627 144.652 87.8307 145.632 87.6404H145.635ZM86.7202 89.201C86.2959 88.6327 85.7857 88.3745 85.2781 87.8932C82.3321 87.9558 79.5016 87.7192 76.5798 87.9775C75.8252 88.0428 75.0974 88.6599 74.5335 89.239L86.7229 89.2037L86.7202 89.201ZM139.485 89.3451C138.961 88.1026 137.884 87.934 136.74 87.9367L128.458 87.953C127.932 88.3554 127.354 88.6355 126.925 89.2173L139.482 89.3451H139.485ZM72.2025 89.7746C72.9893 89.7855 73.6419 89.326 73.658 88.5947L65.9829 88.6436C65.102 88.6491 64.1917 88.7578 63.6062 89.6604L72.2025 89.7746ZM150.509 89.7257C150.286 88.9427 149.579 88.7279 148.93 88.7007C146.113 88.5865 143.277 88.5321 140.392 88.6491C140.137 88.6599 140.312 89.4375 140.508 89.6006C140.682 89.7501 141.112 89.7828 141.461 89.7801L150.509 89.723V89.7257ZM84.5772 101.125L84.4483 90.1824L76.5154 90.2205L76.5342 101.109C77.5788 101.408 78.5537 101.139 79.4479 100.631C81.2096 99.6247 81.642 101.748 84.5745 101.125H84.5772ZM137.578 100.883L137.514 90.1987L129.352 90.2069L129.336 101.068C130.891 101.308 132.218 101.128 133.45 100.272C134.782 100.987 136.182 101.514 137.575 100.883H137.578ZM75.613 90.5875L65.1557 90.6229L65.1907 101.144L75.648 101.109L75.613 90.5875ZM138.51 90.6555L138.483 101.128L149.185 101.155L149.212 90.6827L138.51 90.6555ZM64.2669 101.066L64.2373 91.376L58.5817 91.4032L58.6273 101.18L64.2695 101.068L64.2669 101.066ZM150.117 91.3515V101.199H155.855V91.3515H150.117ZM112.001 111.47L111.996 98.9613C111.964 97.5367 111.322 96.3486 110.28 95.4731C109.211 94.6793 108.102 94.0431 106.888 93.4884C104.815 94.4101 102.001 96.1719 101.993 98.6704L101.958 111.506L111.999 111.47H112.001ZM82.461 104.304L82.7538 109.208C82.9605 109.573 84.1583 109.537 84.5047 109.181L84.4698 102.039C82.7779 102.67 81.5748 101.539 80.3476 101.514C79.1982 101.492 78.0703 102.596 76.553 102.034L76.5073 109.429C77.133 109.488 77.6674 109.573 78.0837 109.342C78.3469 107.667 77.7856 106.065 78.3039 104.508C78.5241 103.85 79.7997 102.974 80.4845 102.92C81.1317 102.871 82.4181 103.687 82.453 104.298L82.461 104.304ZM135.671 104.834L135.846 109.249C136.093 109.613 137.154 109.592 137.508 109.276L137.538 102.074C136.004 102.43 134.71 101.506 133.418 101.547C132.127 101.588 130.902 102.507 129.382 101.985L129.36 109.401C130.024 109.54 130.566 109.57 131.133 109.39L131.302 104.646C131.334 103.754 132.755 102.89 133.655 103.031C134.492 103.162 135.639 103.937 135.674 104.837L135.671 104.834ZM70.0997 103.192C71.3404 103.295 72.3368 104.344 72.5086 105.334C72.753 106.74 72.4334 108.037 72.608 109.456C73.5667 109.643 74.555 109.622 75.5996 109.434L75.6587 102.275C74.7698 102.24 74.0635 102.066 73.2552 102.074L65.2148 102.156V109.499C65.956 109.584 66.6301 109.57 67.3364 109.431L67.5727 104.736C67.6103 103.98 69.2135 103.118 70.097 103.192H70.0997ZM146.722 105.087L146.937 109.524C147.694 109.649 148.387 109.638 149.177 109.458L149.131 102.121L138.499 102.112L138.545 109.502C139.555 109.594 140.478 109.581 141.472 109.464C141.762 107.99 141.26 106.528 141.687 105.027C141.937 104.149 143.228 103.415 144.166 103.284C145.213 103.14 146.674 104.037 146.725 105.087H146.722ZM64.3152 109.29L64.197 102.156L58.5924 102.188L58.5978 111.435C63.386 111.78 60.867 111.234 64.3152 109.287V109.29ZM155.855 111.424L155.802 102.159L150.146 102.213L150.197 109.467C153.629 110.755 150.474 111.943 155.855 111.421V111.424ZM71.6707 109.42C71.4881 107.213 72.4119 104.605 70.1239 104.276C69.466 104.181 68.4052 104.864 68.3891 105.717C68.3622 107.055 68.3327 108.192 68.4132 109.445C69.5573 109.524 70.5375 109.559 71.6734 109.418L71.6707 109.42ZM81.7494 109.274C81.6447 107.699 82.3053 103.768 80.3771 104.045C78.4489 104.323 79.2546 107.536 79.1391 109.393C80.0361 109.393 80.8336 109.505 81.7494 109.274ZM134.807 109.374C134.791 107.86 134.879 106.615 134.782 105.198C134.729 104.423 133.732 103.945 133.128 104.176C131.549 104.779 132.314 107.392 132.18 109.418C133.056 109.502 133.832 109.548 134.809 109.371L134.807 109.374ZM145.906 109.361C145.683 106.857 146.523 104.722 144.477 104.252C143.94 104.127 142.952 104.627 142.664 105.383C142.189 106.645 142.651 108.088 142.506 109.502C143.765 109.581 144.794 109.649 145.903 109.363L145.906 109.361ZM97.3521 111.468C97.4461 110.679 97.4515 110.013 97.1614 109.412L91.4548 109.445C91.1755 110.125 91.0439 110.731 91.1325 111.489L97.3521 111.47V111.468ZM123.052 111.468C123.052 110.935 122.99 109.676 122.418 109.586C120.434 109.279 118.538 109.529 116.634 109.513C116.484 110.26 116.414 110.753 116.559 111.5L123.05 111.468H123.052ZM73.2713 111.527C73.9991 111.53 74.5308 111.065 74.4046 110.38L64.4092 110.367C63.8372 110.611 63.2786 110.869 63.0503 111.489L73.2713 111.527ZM89.9643 111.468C90.3268 111.468 90.2946 110.32 89.8972 110.32L76.2227 110.345C75.562 110.345 75.0276 110.889 75.0733 111.511L89.9643 111.468ZM139.015 111.527C139.208 110.668 138.658 110.345 137.994 110.345L123.989 110.361C123.74 110.608 123.874 111.498 124.309 111.498L139.015 111.527ZM151.263 111.473C151.043 110.695 150.28 110.372 149.542 110.375L139.812 110.426C139.834 110.66 140.041 111.47 140.43 111.47H151.261L151.263 111.473Z" fill="#FFE6C4"/>
<path d="M109.205 68.4732C107.575 68.6716 106.09 68.5874 104.398 68.5194L104.334 62.7692C104.318 61.3772 105.277 59.6725 106.791 59.6916C108.193 59.7106 109.146 61.2875 109.157 62.5626L109.203 68.4732H109.205ZM108.201 67.5542L108.22 62.7964C108.225 61.7361 107.72 60.8552 106.762 60.4827C105.843 60.8498 105.252 61.7306 105.26 62.7937L105.295 67.5923C106.289 67.7146 107.175 67.7772 108.204 67.5542H108.201Z" fill="#FFE6C4"/>
<path d="M114.566 68.3915C113.357 68.5845 112.361 68.5274 111.037 68.4187C111.007 66.3578 110.889 64.3215 111.091 62.2226C111.171 61.3716 112.24 60.6539 112.871 60.6783C115.455 60.7817 114.297 66.0506 114.568 68.3888L114.566 68.3915ZM113.677 67.4807C113.462 66.0642 114.243 61.9942 112.885 61.7088C111.351 61.3879 111.993 66.2572 111.915 67.4018C112.307 67.7716 113.089 67.652 113.677 67.4807Z" fill="#FFE6C4"/>
<path d="M102.529 68.476C101.281 68.6391 100.274 68.6011 99.0571 68.476L99.0491 62.7856C99.0491 61.9102 99.75 60.8091 100.695 60.7167C101.565 60.6324 102.465 61.6873 102.521 62.5219C102.656 64.5148 102.538 66.2629 102.529 68.4787V68.476ZM101.753 67.4238L101.579 62.6198C101.563 62.1984 101.141 61.6981 100.787 61.7117C99.3284 61.7743 100.104 66.2657 99.9863 67.5217C100.631 67.6549 101.254 67.8045 101.753 67.4211V67.4238Z" fill="#FFE6C4"/>
<path d="M125.794 106.943C126.887 100.843 124.032 100.84 124.983 106.992C123.495 108.403 124.013 104.178 124.035 102.765C124.048 101.897 124.545 101.283 125.254 101.174C127.416 100.84 126.951 105.674 126.803 107.058C126.769 107.373 125.799 107.185 125.791 106.941L125.794 106.943Z" fill="#FFE6C4"/>
<path d="M90.0418 107.294C88.9676 107.188 88.1727 107.139 87.1361 107.224C87.171 105.511 86.5748 101.452 88.4788 101.237C90.6299 100.992 89.9612 105.843 90.0444 107.294H90.0418ZM88.4332 102.477C87.7564 102.61 88.0088 104.894 87.9927 106.03C87.9847 106.568 88.2344 106.878 88.6963 106.797C89.3274 106.683 89.604 102.248 88.4305 102.477H88.4332Z" fill="#FFE6C4"/>
<path d="M122.241 67.595C121.878 67.8914 121.126 67.7799 120.576 67.6467C120.67 66.2927 119.915 62.6224 121.468 62.6387C123.02 62.655 122.381 66.4287 122.244 67.595H122.241ZM121.868 63.8921H121.331V66.8827H121.868V63.8921Z" fill="#FFE6C4"/>
<path d="M125.646 67.4129C125.617 67.8615 124.945 67.7555 124.685 67.7419C123.898 67.6984 124.722 65.6104 124.327 63.3756C124.266 63.0194 124.744 62.7176 124.956 62.7394C126.033 62.8427 125.727 66.1242 125.643 67.4129H125.646Z" fill="#FFE6C4"/>
<path d="M93.2563 67.5979C92.3755 67.9105 91.7847 67.829 91.0193 67.6468C91.1106 66.2031 90.3802 62.8237 91.9646 62.6198C93.7934 62.3833 93.071 66.0509 93.259 67.5979H93.2563ZM92.4909 63.8188H91.7766L91.7793 66.9019H92.4936L92.4909 63.8188Z" fill="#FFE6C4"/>
<path d="M89.5048 67.3392C89.4967 67.8368 87.9929 68.0081 87.864 67.6057C87.7001 67.0864 87.1469 62.4727 88.6616 62.6412C89.8244 62.7717 89.5397 64.9223 89.5048 67.3392ZM89.3893 64.3975C88.3071 62.2062 88.4413 66.8635 88.8012 67.1027C89.4189 66.1729 89.1476 65.2839 89.3893 64.3975Z" fill="#FFE6C4"/>
<path d="M100.067 75.1776C97.6633 75.3325 95.0933 75.3624 92.5797 75.2347C92.2198 75.2156 92.44 74.6338 92.5877 74.5088C92.7865 74.3429 93.3155 73.9786 93.6485 74.139C94.5965 74.5876 95.3269 74.1635 96.1675 74.1499C97.0081 74.1363 97.7895 74.7725 98.8073 74.1444C99.0007 74.0248 99.4626 74.3647 99.6747 74.2559C100.016 74.0765 100.274 74.8051 100.07 75.1803L100.067 75.1776Z" fill="#FFE6C4"/>
<path d="M109.689 75.278L103.931 75.259C103.942 74.5603 104.326 74.0247 104.815 73.7637C105.902 74.9491 107.892 74.8621 108.872 73.4619C109.052 73.9051 109.34 74.234 109.957 74.4352C110.261 74.5331 110.215 75.278 109.689 75.278Z" fill="#FFE6C4"/>
<path d="M102.935 75.0063C102.881 75.5826 100.915 75.4549 100.867 74.8758C100.808 74.1743 101.557 74.1227 101.837 74.12C102.159 74.1145 103.013 74.1689 102.935 75.009V75.0063Z" fill="#FFE6C4"/>
<path d="M146.531 99.2277C144.885 99.4452 143.451 99.3554 141.864 99.2494C141.864 97.7052 141.756 96.4029 141.882 94.8994C141.974 93.8282 142.994 92.6809 144.181 92.6836C145.172 92.6836 146.276 93.7466 146.442 94.6873C146.703 96.1636 146.434 97.4605 146.531 99.2304V99.2277ZM145.57 98.374C145.54 96.6584 146.042 93.5482 144.055 93.7847C142.068 94.0212 142.892 96.7481 142.849 98.3114C143.786 98.3821 144.546 98.5153 145.57 98.374Z" fill="#FFE6C4"/>
<path d="M72.3927 99.2415C70.8378 99.4264 69.4628 99.3476 67.8381 99.285C67.916 96.7267 66.9895 93.1325 69.9489 92.7084C70.9533 92.5643 72.1456 93.5512 72.3121 94.7094C72.5189 96.153 72.3041 97.4499 72.3927 99.2415ZM71.5119 98.3879C71.4286 96.7403 72.0678 93.8937 70.1745 93.698C68.1201 93.4859 68.7163 97.0502 68.7646 98.3688C69.6884 98.4721 70.4216 98.4531 71.5092 98.3879H71.5119Z" fill="#FFE6C4"/>
<path d="M133.915 97.803C134.073 96.9167 134.549 94.0511 133.531 93.9097C132.408 93.7548 132.983 97.0608 133.08 97.7921C132.784 97.9716 132.062 98.0695 132.013 97.8003C131.801 96.6611 131.439 92.9827 133.329 92.8576C135.478 92.7162 135.137 95.8944 135.059 97.629C135.04 98.0504 134.342 98.0559 133.912 97.8003L133.915 97.803Z" fill="#FFE6C4"/>
<path d="M82.0122 97.7952L78.9159 97.8713C78.8192 96.3679 78.4862 92.5888 80.597 92.8498C81.1421 92.9178 81.9451 93.4588 81.9558 94.1575L82.0122 97.7952ZM80.3821 93.9128C79.6409 94.0107 79.5201 97.8333 80.6185 97.5641C81.2791 97.4037 81.4134 93.7742 80.3821 93.9128Z" fill="#FFE6C4"/>
<path d="M81.7115 72.8069C80.2533 73.2637 81.9612 69.0061 80.401 69.0551C80.0518 69.0659 79.7645 69.4058 79.7618 69.8734L79.7484 72.5677C79.7484 72.8233 79.4369 72.8912 79.3053 72.8885C79.1817 72.8885 78.8434 72.8396 78.8353 72.584C78.7789 70.5857 78.505 68.408 80.1888 68.0138C80.8038 67.8697 81.7571 68.4488 81.929 69.2372C81.9988 69.5553 82.262 72.6357 81.7088 72.8069H81.7115Z" fill="#FFE6C4"/>
<path d="M134.111 69.7889C134.103 69.3512 133.697 69.0847 133.49 69.0521C132.448 68.8863 132.948 71.2815 132.765 72.592C132.717 72.9345 131.93 72.9644 131.903 72.6001C131.823 71.4691 131.815 70.4468 131.911 69.3485C131.989 68.4676 132.851 67.9293 133.536 68.0081C135.437 68.2202 135.244 70.4006 135.043 72.6137C135.008 72.9916 134.167 72.9644 134.159 72.6083L134.111 69.7916V69.7889Z" fill="#FFE6C4"/>
</g>
<defs>
<clipPath id="clip0_770_430">
<rect width="108.507" height="78.0176" fill="white" transform="translate(52.9419 34.4722)"/>
</clipPath>
</defs>
</svg>
